<svg xmlns="http://www.w3.org/2000/svg" width="1200" height="630" viewBox="0 0 1200 630">
<defs>
  <linearGradient id="background" x1="0" y1="0" x2="1" y2="1">
    <stop offset="0" stop-color="#05070a"/>
    <stop offset="0.55" stop-color="#0a0e14"/>
    <stop offset="1" stop-color="#07090d"/>
  </linearGradient>
  <radialGradient id="accentGlow" cx="0.5" cy="0.5" r="0.5">
    <stop offset="0" stop-color="#9b7cff" stop-opacity="0.28"/>
    <stop offset="0.55" stop-color="#9b7cff" stop-opacity="0.08"/>
    <stop offset="1" stop-color="#9b7cff" stop-opacity="0"/>
  </radialGradient>
  <filter id="blur" x="-100%" y="-100%" width="300%" height="300%">
    <feGaussianBlur stdDeviation="8"/>
  </filter>
  <radialGradient id="vignette" cx="0.5" cy="0.48" r="0.72">
    <stop offset="0.58" stop-color="#000000" stop-opacity="0"/>
    <stop offset="1" stop-color="#000000" stop-opacity="0.55"/>
  </radialGradient>
</defs>
<rect width="1200" height="630" fill="url(#background)"/>
<g >
<line x1="75" y1="50" x2="75" y2="580" stroke="#141b22" stroke-width="1" opacity="0.4"/>
<line x1="225" y1="50" x2="225" y2="580" stroke="#141b22" stroke-width="1" opacity="0.4"/>
<line x1="375" y1="50" x2="375" y2="580" stroke="#141b22" stroke-width="1" opacity="0.4"/>
<line x1="525" y1="50" x2="525" y2="580" stroke="#141b22" stroke-width="1" opacity="0.4"/>
<line x1="675" y1="50" x2="675" y2="580" stroke="#141b22" stroke-width="1" opacity="0.4"/>
<line x1="825" y1="50" x2="825" y2="580" stroke="#141b22" stroke-width="1" opacity="0.4"/>
<line x1="975" y1="50" x2="975" y2="580" stroke="#141b22" stroke-width="1" opacity="0.4"/>
<line x1="1125" y1="50" x2="1125" y2="580" stroke="#141b22" stroke-width="1" opacity="0.4"/>
<line x1="45" y1="75" x2="1155" y2="75" stroke="#141b22" stroke-width="1" opacity="0.4"/>
<line x1="45" y1="195" x2="1155" y2="195" stroke="#141b22" stroke-width="1" opacity="0.4"/>
<line x1="45" y1="315" x2="1155" y2="315" stroke="#141b22" stroke-width="1" opacity="0.4"/>
<line x1="45" y1="435" x2="1155" y2="435" stroke="#141b22" stroke-width="1" opacity="0.4"/>
<line x1="45" y1="555" x2="1155" y2="555" stroke="#141b22" stroke-width="1" opacity="0.4"/>
<circle cx="854" cy="158" r="1.7000000000000002" fill="#9b7cff" opacity="0.28"/>
<circle cx="887" cy="188" r="1.25" fill="#34414d" opacity="0.28"/>
<circle cx="315" cy="93" r="1.25" fill="#34414d" opacity="0.28"/>
<circle cx="756" cy="387" r="0.8" fill="#34414d" opacity="0.28"/>
<circle cx="716" cy="124" r="1.7000000000000002" fill="#34414d" opacity="0.28"/>
<circle cx="770" cy="587" r="0.8" fill="#9b7cff" opacity="0.28"/>
<circle cx="478" cy="367" r="1.25" fill="#34414d" opacity="0.28"/>
<circle cx="635" cy="430" r="1.7000000000000002" fill="#34414d" opacity="0.28"/>
<circle cx="224" cy="109" r="0.8" fill="#34414d" opacity="0.28"/>
<circle cx="239" cy="536" r="1.7000000000000002" fill="#34414d" opacity="0.28"/>
<circle cx="330" cy="93" r="1.7000000000000002" fill="#9b7cff" opacity="0.28"/>
<circle cx="953" cy="40" r="1.7000000000000002" fill="#34414d" opacity="0.28"/>
<circle cx="56" cy="354" r="0.8" fill="#34414d" opacity="0.28"/>
<circle cx="1038" cy="348" r="0.8" fill="#34414d" opacity="0.28"/>
<circle cx="1067" cy="469" r="1.7000000000000002" fill="#34414d" opacity="0.28"/>
<circle cx="102" cy="234" r="0.8" fill="#9b7cff" opacity="0.28"/>
<circle cx="56" cy="65" r="1.25" fill="#34414d" opacity="0.28"/>
<circle cx="414" cy="505" r="0.8" fill="#34414d" opacity="0.28"/>
<circle cx="943" cy="223" r="1.25" fill="#34414d" opacity="0.28"/>
<circle cx="108" cy="311" r="1.7000000000000002" fill="#34414d" opacity="0.28"/>
<circle cx="674" cy="382" r="1.7000000000000002" fill="#9b7cff" opacity="0.28"/>
<circle cx="498" cy="555" r="1.7000000000000002" fill="#34414d" opacity="0.28"/>
<circle cx="1057" cy="590" r="0.8" fill="#34414d" opacity="0.28"/>
<circle cx="856" cy="415" r="1.25" fill="#34414d" opacity="0.28"/>
</g>
<g >
<line x1="600" y1="65" x2="600" y2="565" stroke="#9b7cff" stroke-width="3"/>
<rect x="570" y="245" width="60" height="140" rx="12" fill="#091018" stroke="#9b7cff" stroke-width="3"/>
<rect x="100" y="130" width="80" height="70" rx="10" fill="#091018" stroke="#263642" stroke-width="1.3" opacity="0.98"/>
<path d="M180 165C450 165 485 315 570 315" fill="none" stroke="#5b3fb8" stroke-width="2" opacity="0.5"/>
<rect x="225" y="130" width="80" height="70" rx="10" fill="#091018" stroke="#263642" stroke-width="1.3" opacity="0.98"/>
<path d="M305 165C450 165 485 315 570 315" fill="none" stroke="#5b3fb8" stroke-width="2" opacity="0.5"/>
<rect x="350" y="130" width="80" height="70" rx="10" fill="#091018" stroke="#263642" stroke-width="1.3" opacity="0.98"/>
<path d="M430 165C450 165 485 315 570 315" fill="none" stroke="#5b3fb8" stroke-width="2" opacity="0.5"/>
<rect x="100" y="265" width="80" height="70" rx="10" fill="#091018" stroke="#263642" stroke-width="1.3" opacity="0.98"/>
<path d="M180 300C450 300 485 315 570 315" fill="none" stroke="#5b3fb8" stroke-width="2" opacity="0.5"/>
<rect x="225" y="265" width="80" height="70" rx="10" fill="#091018" stroke="#263642" stroke-width="1.3" opacity="0.98"/>
<path d="M305 300C450 300 485 315 570 315" fill="none" stroke="#5b3fb8" stroke-width="2" opacity="0.5"/>
<rect x="350" y="265" width="80" height="70" rx="10" fill="#091018" stroke="#263642" stroke-width="1.3" opacity="0.98"/>
<path d="M430 300C450 300 485 315 570 315" fill="none" stroke="#5b3fb8" stroke-width="2" opacity="0.5"/>
<rect x="100" y="400" width="80" height="70" rx="10" fill="#091018" stroke="#263642" stroke-width="1.3" opacity="0.98"/>
<path d="M180 435C450 435 485 315 570 315" fill="none" stroke="#5b3fb8" stroke-width="2" opacity="0.5"/>
<line x1="630" y1="160" x2="960" y2="160" stroke="#9b7cff" stroke-width="2" opacity="0.5"/>
<g >
<circle cx="1000" cy="160" r="13" fill="#071014" stroke="#263642" stroke-width="1"/>
<circle cx="1000" cy="160" r="9" fill="#9b7cff" opacity="0.92"/>
</g>
<line x1="630" y1="315" x2="960" y2="315" stroke="#9b7cff" stroke-width="2" opacity="0.5"/>
<g >
<circle cx="1000" cy="315" r="36" fill="#9b7cff" opacity="0.09" filter="url(#blur)"/>
<circle cx="1000" cy="315" r="13" fill="#071014" stroke="#263642" stroke-width="1"/>
<circle cx="1000" cy="315" r="9" fill="#9b7cff" opacity="0.92"/>
</g>
<line x1="630" y1="470" x2="960" y2="470" stroke="#9b7cff" stroke-width="2" opacity="0.5"/>
<g >
<circle cx="1000" cy="470" r="13" fill="#071014" stroke="#263642" stroke-width="1"/>
<circle cx="1000" cy="470" r="9" fill="#9b7cff" opacity="0.92"/>
</g>
</g>
<rect width="1200" height="630" fill="url(#vignette)" pointer-events="none"/>
<rect x="1" y="1" width="1198" height="628" fill="none" stroke="#1a222b" stroke-width="2"/>
</svg>
