<svg xmlns="http://www.w3.org/2000/svg" width="1200" height="630" viewBox="0 0 1200 630">
<defs>
  <linearGradient id="background" x1="0" y1="0" x2="1" y2="1">
    <stop offset="0" stop-color="#05070a"/>
    <stop offset="0.55" stop-color="#0a0e14"/>
    <stop offset="1" stop-color="#07090d"/>
  </linearGradient>
  <radialGradient id="accentGlow" cx="0.5" cy="0.5" r="0.5">
    <stop offset="0" stop-color="#55d98a" stop-opacity="0.28"/>
    <stop offset="0.55" stop-color="#55d98a" stop-opacity="0.08"/>
    <stop offset="1" stop-color="#55d98a" stop-opacity="0"/>
  </radialGradient>
  <filter id="blur" x="-100%" y="-100%" width="300%" height="300%">
    <feGaussianBlur stdDeviation="8"/>
  </filter>
  <radialGradient id="vignette" cx="0.5" cy="0.48" r="0.72">
    <stop offset="0.58" stop-color="#000000" stop-opacity="0"/>
    <stop offset="1" stop-color="#000000" stop-opacity="0.55"/>
  </radialGradient>
</defs>
<rect width="1200" height="630" fill="url(#background)"/>
<g >
<line x1="75" y1="50" x2="75" y2="580" stroke="#141b22" stroke-width="1" opacity="0.4"/>
<line x1="225" y1="50" x2="225" y2="580" stroke="#141b22" stroke-width="1" opacity="0.4"/>
<line x1="375" y1="50" x2="375" y2="580" stroke="#141b22" stroke-width="1" opacity="0.4"/>
<line x1="525" y1="50" x2="525" y2="580" stroke="#141b22" stroke-width="1" opacity="0.4"/>
<line x1="675" y1="50" x2="675" y2="580" stroke="#141b22" stroke-width="1" opacity="0.4"/>
<line x1="825" y1="50" x2="825" y2="580" stroke="#141b22" stroke-width="1" opacity="0.4"/>
<line x1="975" y1="50" x2="975" y2="580" stroke="#141b22" stroke-width="1" opacity="0.4"/>
<line x1="1125" y1="50" x2="1125" y2="580" stroke="#141b22" stroke-width="1" opacity="0.4"/>
<line x1="45" y1="75" x2="1155" y2="75" stroke="#141b22" stroke-width="1" opacity="0.4"/>
<line x1="45" y1="195" x2="1155" y2="195" stroke="#141b22" stroke-width="1" opacity="0.4"/>
<line x1="45" y1="315" x2="1155" y2="315" stroke="#141b22" stroke-width="1" opacity="0.4"/>
<line x1="45" y1="435" x2="1155" y2="435" stroke="#141b22" stroke-width="1" opacity="0.4"/>
<line x1="45" y1="555" x2="1155" y2="555" stroke="#141b22" stroke-width="1" opacity="0.4"/>
<circle cx="140" cy="65" r="1.7000000000000002" fill="#55d98a" opacity="0.28"/>
<circle cx="145" cy="508" r="1.25" fill="#34414d" opacity="0.28"/>
<circle cx="544" cy="501" r="1.25" fill="#34414d" opacity="0.28"/>
<circle cx="241" cy="109" r="1.25" fill="#34414d" opacity="0.28"/>
<circle cx="816" cy="253" r="1.25" fill="#34414d" opacity="0.28"/>
<circle cx="182" cy="242" r="0.8" fill="#55d98a" opacity="0.28"/>
<circle cx="56" cy="145" r="0.8" fill="#34414d" opacity="0.28"/>
<circle cx="459" cy="352" r="0.8" fill="#34414d" opacity="0.28"/>
<circle cx="553" cy="178" r="0.8" fill="#34414d" opacity="0.28"/>
<circle cx="1015" cy="363" r="1.7000000000000002" fill="#34414d" opacity="0.28"/>
<circle cx="438" cy="195" r="0.8" fill="#55d98a" opacity="0.28"/>
<circle cx="624" cy="449" r="1.25" fill="#34414d" opacity="0.28"/>
<circle cx="237" cy="251" r="1.25" fill="#34414d" opacity="0.28"/>
<circle cx="834" cy="559" r="1.25" fill="#34414d" opacity="0.28"/>
<circle cx="158" cy="124" r="1.25" fill="#34414d" opacity="0.28"/>
<circle cx="886" cy="359" r="1.25" fill="#55d98a" opacity="0.28"/>
<circle cx="328" cy="55" r="0.8" fill="#34414d" opacity="0.28"/>
<circle cx="228" cy="288" r="1.25" fill="#34414d" opacity="0.28"/>
<circle cx="648" cy="42" r="1.25" fill="#34414d" opacity="0.28"/>
<circle cx="98" cy="124" r="1.25" fill="#34414d" opacity="0.28"/>
<circle cx="920" cy="184" r="1.25" fill="#55d98a" opacity="0.28"/>
<circle cx="1074" cy="501" r="1.7000000000000002" fill="#34414d" opacity="0.28"/>
<circle cx="324" cy="326" r="0.8" fill="#34414d" opacity="0.28"/>
<circle cx="303" cy="449" r="1.7000000000000002" fill="#34414d" opacity="0.28"/>
</g>
<g >
<line x1="80" y1="315" x2="1120" y2="315" stroke="#263642" stroke-width="3"/>
<rect x="226" y="155" width="48" height="320" rx="8" fill="#091018" stroke="#55d98a" stroke-width="2"/>
<rect x="241" y="265" width="18" height="100" rx="6" fill="#55d98a" opacity="0.38"/>
<g >
<circle cx="250" cy="315" r="10" fill="#071014" stroke="#263642" stroke-width="1"/>
<circle cx="250" cy="315" r="6" fill="#55d98a" opacity="0.92"/>
</g>
<rect x="401" y="155" width="48" height="320" rx="8" fill="#091018" stroke="#55d98a" stroke-width="2"/>
<rect x="416" y="265" width="18" height="100" rx="6" fill="#55d98a" opacity="0.48"/>
<g >
<circle cx="425" cy="315" r="10" fill="#071014" stroke="#263642" stroke-width="1"/>
<circle cx="425" cy="315" r="6" fill="#55d98a" opacity="0.92"/>
</g>
<rect x="576" y="155" width="48" height="320" rx="8" fill="#091018" stroke="#55d98a" stroke-width="2"/>
<rect x="591" y="265" width="18" height="100" rx="6" fill="#55d98a" opacity="0.5800000000000001"/>
<g >
<circle cx="600" cy="315" r="10" fill="#071014" stroke="#263642" stroke-width="1"/>
<circle cx="600" cy="315" r="6" fill="#55d98a" opacity="0.92"/>
</g>
<rect x="751" y="155" width="48" height="320" rx="8" fill="#091018" stroke="#55d98a" stroke-width="2"/>
<rect x="766" y="265" width="18" height="100" rx="6" fill="#55d98a" opacity="0.68"/>
<g >
<circle cx="775" cy="315" r="10" fill="#071014" stroke="#263642" stroke-width="1"/>
<circle cx="775" cy="315" r="6" fill="#55d98a" opacity="0.92"/>
</g>
<rect x="926" y="155" width="48" height="320" rx="8" fill="#091018" stroke="#1f8f63" stroke-width="2"/>
<rect x="941" y="265" width="18" height="100" rx="6" fill="#1f8f63" opacity="0.78"/>
<g >
<circle cx="950" cy="315" r="24" fill="#1f8f63" opacity="0.09" filter="url(#blur)"/>
<circle cx="950" cy="315" r="10" fill="#071014" stroke="#263642" stroke-width="1"/>
<circle cx="950" cy="315" r="6" fill="#1f8f63" opacity="0.92"/>
</g>
<polygon points="1105,305 1120,315 1105,325" fill="#55d98a" opacity="0.9"/>
</g>
<rect width="1200" height="630" fill="url(#vignette)" pointer-events="none"/>
<rect x="1" y="1" width="1198" height="628" fill="none" stroke="#1a222b" stroke-width="2"/>
</svg>
