<svg xmlns="http://www.w3.org/2000/svg" width="1200" height="630" viewBox="0 0 1200 630">
<defs>
  <linearGradient id="background" x1="0" y1="0" x2="1" y2="1">
    <stop offset="0" stop-color="#05070a"/>
    <stop offset="0.55" stop-color="#0a0e14"/>
    <stop offset="1" stop-color="#07090d"/>
  </linearGradient>
  <radialGradient id="accentGlow" cx="0.5" cy="0.5" r="0.5">
    <stop offset="0" stop-color="#55d98a" stop-opacity="0.28"/>
    <stop offset="0.55" stop-color="#55d98a" stop-opacity="0.08"/>
    <stop offset="1" stop-color="#55d98a" stop-opacity="0"/>
  </radialGradient>
  <filter id="blur" x="-100%" y="-100%" width="300%" height="300%">
    <feGaussianBlur stdDeviation="8"/>
  </filter>
  <radialGradient id="vignette" cx="0.5" cy="0.48" r="0.72">
    <stop offset="0.58" stop-color="#000000" stop-opacity="0"/>
    <stop offset="1" stop-color="#000000" stop-opacity="0.55"/>
  </radialGradient>
</defs>
<rect width="1200" height="630" fill="url(#background)"/>
<g >
<line x1="75" y1="50" x2="75" y2="580" stroke="#141b22" stroke-width="1" opacity="0.4"/>
<line x1="225" y1="50" x2="225" y2="580" stroke="#141b22" stroke-width="1" opacity="0.4"/>
<line x1="375" y1="50" x2="375" y2="580" stroke="#141b22" stroke-width="1" opacity="0.4"/>
<line x1="525" y1="50" x2="525" y2="580" stroke="#141b22" stroke-width="1" opacity="0.4"/>
<line x1="675" y1="50" x2="675" y2="580" stroke="#141b22" stroke-width="1" opacity="0.4"/>
<line x1="825" y1="50" x2="825" y2="580" stroke="#141b22" stroke-width="1" opacity="0.4"/>
<line x1="975" y1="50" x2="975" y2="580" stroke="#141b22" stroke-width="1" opacity="0.4"/>
<line x1="1125" y1="50" x2="1125" y2="580" stroke="#141b22" stroke-width="1" opacity="0.4"/>
<line x1="45" y1="75" x2="1155" y2="75" stroke="#141b22" stroke-width="1" opacity="0.4"/>
<line x1="45" y1="195" x2="1155" y2="195" stroke="#141b22" stroke-width="1" opacity="0.4"/>
<line x1="45" y1="315" x2="1155" y2="315" stroke="#141b22" stroke-width="1" opacity="0.4"/>
<line x1="45" y1="435" x2="1155" y2="435" stroke="#141b22" stroke-width="1" opacity="0.4"/>
<line x1="45" y1="555" x2="1155" y2="555" stroke="#141b22" stroke-width="1" opacity="0.4"/>
<circle cx="709" cy="577" r="0.8" fill="#55d98a" opacity="0.28"/>
<circle cx="120" cy="436" r="0.8" fill="#34414d" opacity="0.28"/>
<circle cx="261" cy="350" r="0.8" fill="#34414d" opacity="0.28"/>
<circle cx="950" cy="190" r="1.7000000000000002" fill="#34414d" opacity="0.28"/>
<circle cx="1068" cy="121" r="0.8" fill="#34414d" opacity="0.28"/>
<circle cx="511" cy="549" r="0.8" fill="#55d98a" opacity="0.28"/>
<circle cx="373" cy="501" r="0.8" fill="#34414d" opacity="0.28"/>
<circle cx="355" cy="447" r="1.7000000000000002" fill="#34414d" opacity="0.28"/>
<circle cx="127" cy="74" r="1.7000000000000002" fill="#34414d" opacity="0.28"/>
<circle cx="802" cy="44" r="1.25" fill="#34414d" opacity="0.28"/>
<circle cx="793" cy="244" r="0.8" fill="#55d98a" opacity="0.28"/>
<circle cx="752" cy="492" r="0.8" fill="#34414d" opacity="0.28"/>
<circle cx="616" cy="370" r="1.25" fill="#34414d" opacity="0.28"/>
<circle cx="913" cy="432" r="0.8" fill="#34414d" opacity="0.28"/>
<circle cx="972" cy="221" r="1.25" fill="#34414d" opacity="0.28"/>
<circle cx="462" cy="100" r="1.25" fill="#55d98a" opacity="0.28"/>
<circle cx="410" cy="508" r="1.7000000000000002" fill="#34414d" opacity="0.28"/>
<circle cx="1090" cy="404" r="0.8" fill="#34414d" opacity="0.28"/>
<circle cx="465" cy="445" r="1.7000000000000002" fill="#34414d" opacity="0.28"/>
<circle cx="761" cy="311" r="1.7000000000000002" fill="#34414d" opacity="0.28"/>
<circle cx="470" cy="109" r="1.25" fill="#55d98a" opacity="0.28"/>
<circle cx="801" cy="370" r="1.25" fill="#34414d" opacity="0.28"/>
<circle cx="1063" cy="527" r="1.25" fill="#34414d" opacity="0.28"/>
<circle cx="1034" cy="395" r="1.7000000000000002" fill="#34414d" opacity="0.28"/>
</g>
<g >
<rect x="210.0" y="120" width="780" height="62" rx="10" fill="#091018" stroke="#263642" stroke-width="1.3" opacity="0.98"/>
<line x1="265.0" y1="151" x2="935.0" y2="151" stroke="#55d98a" stroke-width="2" opacity="0.35"/>
<circle cx="300.0" cy="151" r="5" fill="#1f8f63"/>
<circle cx="450.0" cy="151" r="5" fill="#55d98a"/>
<circle cx="600.0" cy="151" r="5" fill="#55d98a"/>
<circle cx="750.0" cy="151" r="5" fill="#1f8f63"/>
<circle cx="900.0" cy="151" r="5" fill="#55d98a"/>
<rect x="150.0" y="235" width="900" height="62" rx="10" fill="#091018" stroke="#55d98a" stroke-width="2" opacity="0.98"/>
<line x1="205.0" y1="266" x2="995.0" y2="266" stroke="#55d98a" stroke-width="2" opacity="0.44999999999999996"/>
<circle cx="240.0" cy="266" r="5" fill="#55d98a"/>
<circle cx="420.0" cy="266" r="5" fill="#55d98a"/>
<circle cx="600.0" cy="266" r="5" fill="#1f8f63"/>
<circle cx="780.0" cy="266" r="5" fill="#55d98a"/>
<circle cx="960.0" cy="266" r="5" fill="#55d98a"/>
<rect x="240.0" y="350" width="720" height="62" rx="10" fill="#091018" stroke="#263642" stroke-width="1.3" opacity="0.98"/>
<line x1="295.0" y1="381" x2="905.0" y2="381" stroke="#55d98a" stroke-width="2" opacity="0.55"/>
<circle cx="330.0" cy="381" r="5" fill="#55d98a"/>
<circle cx="465.0" cy="381" r="5" fill="#1f8f63"/>
<circle cx="600.0" cy="381" r="5" fill="#55d98a"/>
<circle cx="735.0" cy="381" r="5" fill="#55d98a"/>
<circle cx="870.0" cy="381" r="5" fill="#1f8f63"/>
<rect x="180.0" y="465" width="840" height="62" rx="10" fill="#091018" stroke="#263642" stroke-width="1.3" opacity="0.98"/>
<line x1="235.0" y1="496" x2="965.0" y2="496" stroke="#55d98a" stroke-width="2" opacity="0.65"/>
<circle cx="270.0" cy="496" r="5" fill="#1f8f63"/>
<circle cx="435.0" cy="496" r="5" fill="#55d98a"/>
<circle cx="600.0" cy="496" r="5" fill="#55d98a"/>
<circle cx="765.0" cy="496" r="5" fill="#1f8f63"/>
<circle cx="930.0" cy="496" r="5" fill="#55d98a"/>
<path d="M280 151C235 230 330 315 280 381S315 490 280 496" fill="none" stroke="#1f8f63" stroke-width="2" stroke-dasharray="6 8" opacity="0.65"/>
<path d="M470 151C425 230 520 315 470 381S505 490 470 496" fill="none" stroke="#1f8f63" stroke-width="2" stroke-dasharray="6 8" opacity="0.65"/>
<path d="M730 151C685 230 780 315 730 381S765 490 730 496" fill="none" stroke="#1f8f63" stroke-width="2" stroke-dasharray="6 8" opacity="0.65"/>
<path d="M920 151C875 230 970 315 920 381S955 490 920 496" fill="none" stroke="#1f8f63" stroke-width="2" stroke-dasharray="6 8" opacity="0.65"/>
</g>
<rect width="1200" height="630" fill="url(#vignette)" pointer-events="none"/>
<rect x="1" y="1" width="1198" height="628" fill="none" stroke="#1a222b" stroke-width="2"/>
</svg>
