<svg xmlns="http://www.w3.org/2000/svg" width="1200" height="630" viewBox="0 0 1200 630">
<defs>
  <linearGradient id="background" x1="0" y1="0" x2="1" y2="1">
    <stop offset="0" stop-color="#05070a"/>
    <stop offset="0.55" stop-color="#0a0e14"/>
    <stop offset="1" stop-color="#07090d"/>
  </linearGradient>
  <radialGradient id="accentGlow" cx="0.5" cy="0.5" r="0.5">
    <stop offset="0" stop-color="#22e5e5" stop-opacity="0.28"/>
    <stop offset="0.55" stop-color="#22e5e5" stop-opacity="0.08"/>
    <stop offset="1" stop-color="#22e5e5" stop-opacity="0"/>
  </radialGradient>
  <filter id="blur" x="-100%" y="-100%" width="300%" height="300%">
    <feGaussianBlur stdDeviation="8"/>
  </filter>
  <radialGradient id="vignette" cx="0.5" cy="0.48" r="0.72">
    <stop offset="0.58" stop-color="#000000" stop-opacity="0"/>
    <stop offset="1" stop-color="#000000" stop-opacity="0.55"/>
  </radialGradient>
</defs>
<rect width="1200" height="630" fill="url(#background)"/>
<g >
<line x1="75" y1="50" x2="75" y2="580" stroke="#141b22" stroke-width="1" opacity="0.4"/>
<line x1="225" y1="50" x2="225" y2="580" stroke="#141b22" stroke-width="1" opacity="0.4"/>
<line x1="375" y1="50" x2="375" y2="580" stroke="#141b22" stroke-width="1" opacity="0.4"/>
<line x1="525" y1="50" x2="525" y2="580" stroke="#141b22" stroke-width="1" opacity="0.4"/>
<line x1="675" y1="50" x2="675" y2="580" stroke="#141b22" stroke-width="1" opacity="0.4"/>
<line x1="825" y1="50" x2="825" y2="580" stroke="#141b22" stroke-width="1" opacity="0.4"/>
<line x1="975" y1="50" x2="975" y2="580" stroke="#141b22" stroke-width="1" opacity="0.4"/>
<line x1="1125" y1="50" x2="1125" y2="580" stroke="#141b22" stroke-width="1" opacity="0.4"/>
<line x1="45" y1="75" x2="1155" y2="75" stroke="#141b22" stroke-width="1" opacity="0.4"/>
<line x1="45" y1="195" x2="1155" y2="195" stroke="#141b22" stroke-width="1" opacity="0.4"/>
<line x1="45" y1="315" x2="1155" y2="315" stroke="#141b22" stroke-width="1" opacity="0.4"/>
<line x1="45" y1="435" x2="1155" y2="435" stroke="#141b22" stroke-width="1" opacity="0.4"/>
<line x1="45" y1="555" x2="1155" y2="555" stroke="#141b22" stroke-width="1" opacity="0.4"/>
<circle cx="94" cy="533" r="0.8" fill="#22e5e5" opacity="0.28"/>
<circle cx="939" cy="398" r="1.7000000000000002" fill="#34414d" opacity="0.28"/>
<circle cx="1138" cy="443" r="1.25" fill="#34414d" opacity="0.28"/>
<circle cx="706" cy="419" r="0.8" fill="#34414d" opacity="0.28"/>
<circle cx="861" cy="329" r="1.25" fill="#34414d" opacity="0.28"/>
<circle cx="944" cy="361" r="0.8" fill="#22e5e5" opacity="0.28"/>
<circle cx="128" cy="408" r="0.8" fill="#34414d" opacity="0.28"/>
<circle cx="577" cy="348" r="1.7000000000000002" fill="#34414d" opacity="0.28"/>
<circle cx="400" cy="346" r="1.7000000000000002" fill="#34414d" opacity="0.28"/>
<circle cx="592" cy="348" r="1.25" fill="#34414d" opacity="0.28"/>
<circle cx="860" cy="180" r="1.25" fill="#22e5e5" opacity="0.28"/>
<circle cx="569" cy="549" r="1.25" fill="#34414d" opacity="0.28"/>
<circle cx="716" cy="480" r="1.25" fill="#34414d" opacity="0.28"/>
<circle cx="933" cy="320" r="1.7000000000000002" fill="#34414d" opacity="0.28"/>
<circle cx="74" cy="227" r="0.8" fill="#34414d" opacity="0.28"/>
<circle cx="738" cy="143" r="1.25" fill="#22e5e5" opacity="0.28"/>
<circle cx="865" cy="359" r="1.7000000000000002" fill="#34414d" opacity="0.28"/>
<circle cx="201" cy="305" r="0.8" fill="#34414d" opacity="0.28"/>
<circle cx="288" cy="137" r="0.8" fill="#34414d" opacity="0.28"/>
<circle cx="1039" cy="162" r="1.25" fill="#34414d" opacity="0.28"/>
<circle cx="284" cy="581" r="1.25" fill="#22e5e5" opacity="0.28"/>
<circle cx="167" cy="197" r="1.7000000000000002" fill="#34414d" opacity="0.28"/>
<circle cx="537" cy="400" r="0.8" fill="#34414d" opacity="0.28"/>
<circle cx="510" cy="156" r="1.7000000000000002" fill="#34414d" opacity="0.28"/>
</g>
<g >
<g >
<circle cx="120" cy="110" r="10" fill="#071014" stroke="#263642" stroke-width="1"/>
<circle cx="120" cy="110" r="6" fill="#22e5e5" opacity="0.92"/>
</g>
<path d="M130 110C280 110 380 315 480 315" fill="none" stroke="#22e5e5" stroke-width="2" opacity="0.35"/>
<g >
<circle cx="120" cy="180" r="10" fill="#071014" stroke="#263642" stroke-width="1"/>
<circle cx="120" cy="180" r="6" fill="#0e7490" opacity="0.92"/>
</g>
<path d="M130 180C280 180 380 315 480 315" fill="none" stroke="#0e7490" stroke-width="2" opacity="0.5"/>
<g >
<circle cx="120" cy="250" r="10" fill="#071014" stroke="#263642" stroke-width="1"/>
<circle cx="120" cy="250" r="6" fill="#22e5e5" opacity="0.92"/>
</g>
<path d="M130 250C280 250 380 315 480 315" fill="none" stroke="#22e5e5" stroke-width="2" opacity="0.6499999999999999"/>
<g >
<circle cx="120" cy="320" r="10" fill="#071014" stroke="#263642" stroke-width="1"/>
<circle cx="120" cy="320" r="6" fill="#0e7490" opacity="0.92"/>
</g>
<path d="M130 320C280 320 380 315 480 315" fill="none" stroke="#0e7490" stroke-width="2" opacity="0.35"/>
<g >
<circle cx="120" cy="390" r="10" fill="#071014" stroke="#263642" stroke-width="1"/>
<circle cx="120" cy="390" r="6" fill="#22e5e5" opacity="0.92"/>
</g>
<path d="M130 390C280 390 380 315 480 315" fill="none" stroke="#22e5e5" stroke-width="2" opacity="0.5"/>
<g >
<circle cx="120" cy="460" r="10" fill="#071014" stroke="#263642" stroke-width="1"/>
<circle cx="120" cy="460" r="6" fill="#0e7490" opacity="0.92"/>
</g>
<path d="M130 460C280 460 380 315 480 315" fill="none" stroke="#0e7490" stroke-width="2" opacity="0.6499999999999999"/>
<g >
<circle cx="120" cy="530" r="10" fill="#071014" stroke="#263642" stroke-width="1"/>
<circle cx="120" cy="530" r="6" fill="#22e5e5" opacity="0.92"/>
</g>
<path d="M130 530C280 530 380 315 480 315" fill="none" stroke="#22e5e5" stroke-width="2" opacity="0.35"/>
<rect x="290" y="245" width="90" height="140" rx="10" fill="#091018" stroke="#263642" stroke-width="1.3" opacity="0.98"/>
<circle cx="600" cy="315" r="145" fill="none" stroke="#25303b" stroke-width="2"/>
<circle cx="600" cy="315" r="115" fill="none" stroke="#0e7490" stroke-width="2" stroke-dasharray="6 10" opacity="0.7"/>
<circle cx="600" cy="315" r="80" fill="#091018" stroke="#22e5e5" stroke-width="3"/>
<circle cx="600" cy="315" r="45" fill="url(#accentGlow)" stroke="#22e5e5" stroke-width="2" opacity="0.85"/>
<g >
<circle cx="600" cy="315" r="40" fill="#22e5e5" opacity="0.09" filter="url(#blur)"/>
<circle cx="600" cy="315" r="14" fill="#071014" stroke="#263642" stroke-width="1"/>
<circle cx="600" cy="315" r="10" fill="#22e5e5" opacity="0.92"/>
</g>
<rect x="740" y="235" width="130" height="160" rx="10" fill="#091018" stroke="#22e5e5" stroke-width="2" opacity="0.98"/>
<line x1="765" y1="275" x2="845" y2="275" stroke="#22e5e5" stroke-width="3" opacity="0.8"/>
<line x1="765" y1="315" x2="830" y2="315" stroke="#0e7490" stroke-width="3" opacity="0.7"/>
<line x1="765" y1="355" x2="850" y2="355" stroke="#22e5e5" stroke-width="3" opacity="0.8"/>
<path d="M870 315C930 315 960 140 1060 140" fill="none" stroke="#22e5e5" stroke-width="2.5" opacity="0.45"/>
<line x1="1060" y1="140" x2="1120" y2="140" stroke="#22e5e5" stroke-width="2.5" opacity="0.6"/>
<g >
<circle cx="1130" cy="140" r="10" fill="#071014" stroke="#263642" stroke-width="1"/>
<circle cx="1130" cy="140" r="6" fill="#22e5e5" opacity="0.92"/>
</g>
<path d="M870 315C930 315 960 210 1060 210" fill="none" stroke="#0e7490" stroke-width="2.5" opacity="0.65"/>
<line x1="1060" y1="210" x2="1120" y2="210" stroke="#0e7490" stroke-width="2.5" opacity="0.6"/>
<g >
<circle cx="1130" cy="210" r="10" fill="#071014" stroke="#263642" stroke-width="1"/>
<circle cx="1130" cy="210" r="6" fill="#0e7490" opacity="0.92"/>
</g>
<path d="M870 315C930 315 960 315 1060 315" fill="none" stroke="#22e5e5" stroke-width="2.5" opacity="0.45"/>
<line x1="1060" y1="315" x2="1120" y2="315" stroke="#22e5e5" stroke-width="2.5" opacity="0.6"/>
<g >
<circle cx="1130" cy="315" r="10" fill="#071014" stroke="#263642" stroke-width="1"/>
<circle cx="1130" cy="315" r="6" fill="#22e5e5" opacity="0.92"/>
</g>
<path d="M870 315C930 315 960 420 1060 420" fill="none" stroke="#0e7490" stroke-width="2.5" opacity="0.65"/>
<line x1="1060" y1="420" x2="1120" y2="420" stroke="#0e7490" stroke-width="2.5" opacity="0.6"/>
<g >
<circle cx="1130" cy="420" r="10" fill="#071014" stroke="#263642" stroke-width="1"/>
<circle cx="1130" cy="420" r="6" fill="#0e7490" opacity="0.92"/>
</g>
<path d="M870 315C930 315 960 490 1060 490" fill="none" stroke="#22e5e5" stroke-width="2.5" opacity="0.45"/>
<line x1="1060" y1="490" x2="1120" y2="490" stroke="#22e5e5" stroke-width="2.5" opacity="0.6"/>
<g >
<circle cx="1130" cy="490" r="10" fill="#071014" stroke="#263642" stroke-width="1"/>
<circle cx="1130" cy="490" r="6" fill="#22e5e5" opacity="0.92"/>
</g>
<line x1="870" y1="315" x2="1070" y2="315" stroke="#22e5e5" stroke-width="4"/>
<polygon points="1070,305 1085,315 1070,325" fill="#22e5e5" opacity="0.9"/>
</g>
<rect width="1200" height="630" fill="url(#vignette)" pointer-events="none"/>
<rect x="1" y="1" width="1198" height="628" fill="none" stroke="#1a222b" stroke-width="2"/>
</svg>
